<svg xmlns="http://www.w3.org/2000/svg" xmlns:xlink="http://www.w3.org/1999/xlink" width="500" zoomAndPan="magnify" viewBox="0 0 375 374.999991" height="500" preserveAspectRatio="xMidYMid meet" version="1.0"><defs><g/></defs><rect x="-37.5" width="450" fill="#ffffff" y="-37.499999" height="449.999989" fill-opacity="1"/><rect x="-37.5" width="450" fill="#e4e2dd" y="-37.499999" height="449.999989" fill-opacity="1"/><g fill="#000000" fill-opacity="1"><g transform="translate(115.117214, 199.675084)"><g><path d="M 0.421875 -35.34375 L 0.421875 -44.1875 L 31.5 -44.1875 L 31.5 -35.34375 L 21 -35.34375 L 21 0 L 10.921875 0 L 10.921875 -35.34375 Z M 0.421875 -35.34375 "/></g></g></g><g fill="#000000" fill-opacity="1"><g transform="translate(142.481791, 199.675084)"><g><path d="M 5.8125 -3.265625 C 2.757812 -5.984375 1.234375 -9.460938 1.234375 -13.703125 C 1.234375 -17.953125 2.820312 -21.441406 6 -24.171875 C 9.175781 -26.910156 13.101562 -28.28125 17.78125 -28.28125 C 22.382812 -28.28125 26.265625 -26.90625 29.421875 -24.15625 C 32.585938 -21.40625 34.171875 -17.921875 34.171875 -13.703125 C 34.171875 -9.492188 32.625 -6.023438 29.53125 -3.296875 C 26.445312 -0.566406 22.53125 0.796875 17.78125 0.796875 C 12.851562 0.796875 8.863281 -0.554688 5.8125 -3.265625 Z M 13.140625 -18.359375 C 11.910156 -17.148438 11.296875 -15.597656 11.296875 -13.703125 C 11.296875 -11.816406 11.882812 -10.273438 13.0625 -9.078125 C 14.25 -7.878906 15.804688 -7.28125 17.734375 -7.28125 C 19.585938 -7.28125 21.113281 -7.882812 22.3125 -9.09375 C 23.507812 -10.3125 24.109375 -11.851562 24.109375 -13.71875 C 24.109375 -15.601562 23.488281 -17.148438 22.25 -18.359375 C 21.019531 -19.578125 19.515625 -20.1875 17.734375 -20.1875 C 15.910156 -20.1875 14.378906 -19.578125 13.140625 -18.359375 Z M 13.140625 -18.359375 "/></g></g></g><g fill="#000000" fill-opacity="1"><g transform="translate(173.327355, 199.675084)"><g><path d="M 3.21875 -19.609375 L 20.453125 -19.609375 L 20.453125 -11.40625 L 3.21875 -11.40625 Z M 3.21875 -19.609375 "/></g></g></g><g fill="#000000" fill-opacity="1"><g transform="translate(192.444676, 199.675084)"><g><path d="M 5.078125 -3.40625 C 2.515625 -6.207031 1.234375 -9.640625 1.234375 -13.703125 C 1.234375 -17.773438 2.515625 -21.222656 5.078125 -24.046875 C 7.648438 -26.867188 10.921875 -28.28125 14.890625 -28.28125 C 18.535156 -28.28125 21.535156 -27.140625 23.890625 -24.859375 L 23.890625 -46.0625 L 33.375 -46.0625 L 33.375 0 L 24 0 L 24 -3.109375 L 23.890625 -3.109375 C 21.535156 -0.503906 18.535156 0.796875 14.890625 0.796875 C 10.921875 0.796875 7.648438 -0.601562 5.078125 -3.40625 Z M 13.140625 -18.359375 C 11.910156 -17.148438 11.296875 -15.597656 11.296875 -13.703125 C 11.296875 -11.816406 11.882812 -10.273438 13.0625 -9.078125 C 14.25 -7.878906 15.804688 -7.28125 17.734375 -7.28125 C 19.585938 -7.28125 21.113281 -7.882812 22.3125 -9.09375 C 23.507812 -10.3125 24.109375 -11.851562 24.109375 -13.71875 C 24.109375 -15.601562 23.488281 -17.148438 22.25 -18.359375 C 21.019531 -19.578125 19.515625 -20.1875 17.734375 -20.1875 C 15.910156 -20.1875 14.378906 -19.578125 13.140625 -18.359375 Z M 13.140625 -18.359375 "/></g></g></g><g fill="#000000" fill-opacity="1"><g transform="translate(224.468421, 199.675084)"><g><path d="M 5.8125 -3.265625 C 2.757812 -5.984375 1.234375 -9.460938 1.234375 -13.703125 C 1.234375 -17.953125 2.820312 -21.441406 6 -24.171875 C 9.175781 -26.910156 13.101562 -28.28125 17.78125 -28.28125 C 22.382812 -28.28125 26.265625 -26.90625 29.421875 -24.15625 C 32.585938 -21.40625 34.171875 -17.921875 34.171875 -13.703125 C 34.171875 -9.492188 32.625 -6.023438 29.53125 -3.296875 C 26.445312 -0.566406 22.53125 0.796875 17.78125 0.796875 C 12.851562 0.796875 8.863281 -0.554688 5.8125 -3.265625 Z M 13.140625 -18.359375 C 11.910156 -17.148438 11.296875 -15.597656 11.296875 -13.703125 C 11.296875 -11.816406 11.882812 -10.273438 13.0625 -9.078125 C 14.25 -7.878906 15.804688 -7.28125 17.734375 -7.28125 C 19.585938 -7.28125 21.113281 -7.882812 22.3125 -9.09375 C 23.507812 -10.3125 24.109375 -11.851562 24.109375 -13.71875 C 24.109375 -15.601562 23.488281 -17.148438 22.25 -18.359375 C 21.019531 -19.578125 19.515625 -20.1875 17.734375 -20.1875 C 15.910156 -20.1875 14.378906 -19.578125 13.140625 -18.359375 Z M 13.140625 -18.359375 "/></g></g></g><path stroke-linecap="butt" transform="matrix(0.75, 0, 0, 0.75, 90.574247, 228.073139)" fill="none" stroke-linejoin="miter" d="M -0.0000370697 5.001439 L 84.43226 5.001439 " stroke="#292929" stroke-width="10" stroke-opacity="1" stroke-miterlimit="4"/><path stroke-linecap="butt" transform="matrix(0, 0.75, -0.75, 0, 98.070394, 171.479446)" fill="none" stroke-linejoin="miter" d="M 0.00136321 5.000109 L 82.46491 5.000109 " stroke="#292929" stroke-width="10" stroke-opacity="1" stroke-miterlimit="4"/><path stroke-linecap="butt" transform="matrix(-0.75, 0, 0, -0.75, 283.487477, 146.919146)" fill="none" stroke-linejoin="miter" d="M -0.00107222 5.00157 L 84.431225 5.00157 " stroke="#292929" stroke-width="10" stroke-opacity="1" stroke-miterlimit="4"/><path stroke-linecap="butt" transform="matrix(0, -0.75, 0.75, 0, 275.991344, 203.512837)" fill="none" stroke-linejoin="miter" d="M 0.00149105 5.001125 L 82.465038 5.001125 " stroke="#292929" stroke-width="10" stroke-opacity="1" stroke-miterlimit="4"/></svg>